<svg id="Layer_1" enable-background="new 0 0 512 512" height="512" viewBox="0 0 512 512" width="512" xmlns="http://www.w3.org/2000/svg"><g><path d="m506.915 99.61c-1.283-20.942-17.071-42.65-43.103-44.748-43.707-3.522-63.86 19.399-80.047 37.819-2.753 3.132-5.352 6.09-7.972 8.821-3.2 3.334-6.775 6.531-10.884 9.714-3.751 2.906-13.52 9.264-14.004 9.527-12.49 1.409-23.29 5.286-27.338 6.739-12.071 4.42-26.761 11.36-42.461 20.09-2.33 1.3-4.02 3.43-4.75 6s-.42 5.27.87 7.6c1.77 3.17 5.12 5.14 8.75 5.14 1.69 0 3.37-.44 4.85-1.26 14.61-8.13 28.681-14.8 39.611-18.79 2.72-1.02 16.975-6.07 29.156-6.04 6.52 0 11.875 1.47 14.985 4.14 1.8 1.53 3.05 3.32 4.06 5.82 1.26 3.16 1.9 7.18 1.9 11.96 0 2.35-.16 4.91-.47 7.6-.93 8.01-4.2 15.5-10 22.91-9.441 12.08-26.611 24.1-49.661 34.739-33.491 15.55-75.821 27.22-112.852 36.94-4.29 1.13-40.751 10.65-52.961 14.159l-.41.12c10.71-11.79 18.511-20.35 23.181-25.42 12.08-13.13 25.791-26.05 40.751-38.42 4.25-3.51 4.85-9.83 1.34-14.07-1.9-2.31-4.72-3.64-7.71-3.64-2.32 0-4.58.82-6.37 2.3-15.66 12.94-30.04 26.49-42.731 40.279-13.76 14.95-50.031 55.05-50.06 55.09-3.23 3.58-3.45 8.96-.52 12.79 1.91 2.49 4.8 3.92 7.94 3.92 1.57 0 3.14-.38 4.54-1.09 5.62-2.88 25.808-9.722 26.135-9.823-50.55 63.622-145.772 138.262-146.832 139.089-3.852 3.007-4.967 8.358-2.636 12.653 1.79 3.298 5.208 5.231 8.791 5.231 1.083 0 2.182-.177 3.255-.546 52.167-17.967 141.404-87.352 207.446-142.732 1.004-.301 1.736-.53 1.987-.625 23.535-8.923 83.372-26.938 134.371-3.416l7.407 7.8c-5.374 2.281-10.127 4.427-11.09 4.863-5.03 2.28-7.259 8.206-4.979 13.237 1.673 3.691 5.309 5.873 9.114 5.873 1.38 0 2.784-.288 4.123-.894 6.746-3.058 18.983-8.344 23.096-9.509 8.737-2.474 24.917-3.857 31.316.113 1.289.8 1.506 1.458 1.629 2.119 1.011 5.429 6.227 9.011 11.662 8 5.429-1.011 9.011-6.232 8.001-11.661-1.209-6.497-4.925-11.839-10.746-15.451-12.491-7.751-31.555-5.555-41.226-3.724l-13.303-14.009c-1.117-5.29-2.94-19.512 7.702-26.383 50.657-32.71 75.329-74.125 87.105-103.108 3.555-8.748 8.642-16.822 15.178-24.128.173 2.165 1.042 4.29 2.636 6.005 1.97 2.119 4.645 3.191 7.327 3.191 2.437 0 4.88-.886 6.806-2.676 18.387-17.095 13.923-38.995 8.095-50.228zm-298.139 198.512c-40.897 34.326-77.833 63.231-109.63 85.898 30.906-28.957 63.154-62.512 82.646-92.26 5.916-1.572 45.312-11.92 50.022-13.201-6.962 5.981-14.695 12.56-23.038 19.563zm270.936-180.203c-14.093 11.651-24.941 26.174-31.37 41.997-10.636 26.177-32.926 63.559-78.709 93.362-1.61-1.431-3.686-2.362-6.003-2.507-5.508-.353-10.262 3.839-10.609 9.351 0 0-1.669 24.966-1.723 26.274-32.484-10.913-66.016-9.183-93.775-3.621 8.117-7.062 14.569-12.766 18.905-16.625.341-.303 41.758-15.387 57.369-22.978 18.96-9.25 33.421-18.91 44.221-29.52 6.11-5.99 11.04-12.4 14.67-19.06 3.93-7.21 6.37-14.81 7.26-22.57.39-3.43.59-6.76.59-9.88 0-7.31-1.12-13.829-3.32-19.36-1.59-4.08-3.89-7.76-6.84-10.93-2.79-3-6-5.4-9.57-7.14-.158-.078-.323-.144-.482-.22 3.602-2.969 6.874-5.992 9.897-9.142 2.924-3.047 5.793-6.31 8.566-9.467 15.277-17.383 29.706-33.8 63.417-31.086 15.757 1.27 24.984 15.188 24.802 27.91-.085 5.905-2.744 11.449-7.296 15.212z"/><circle cx="451" cy="103" r="10"/><circle cx="247.712" cy="180.021" r="10"/></g></svg>